<svg id="Layer_1" data-name="Layer 1" xmlns="http://www.w3.org/2000/svg" viewBox="0 0 53.47 53.47"><defs><style>.cls-1{fill:#36b054;}</style></defs><title>attach</title><path class="cls-1" d="M26.74,0A26.74,26.74,0,1,0,53.47,26.74,26.74,26.74,0,0,0,26.74,0ZM34,29.32a7.82,7.82,0,0,1-1.56,4.15,5.94,5.94,0,0,1-.76.83c-2.36,2.32-4.8,4.57-7.34,6.72A9,9,0,0,1,19.67,43l-.86.1h-1.1l-.16,0a9.09,9.09,0,0,1-8.47-6.94C9,35.76,9,35.4,8.91,35.05V33.89c.06-.35.1-.71.18-1.06a8.08,8.08,0,0,1,2.5-4.34l6.89-6.29c.18-.16.37-.31.56-.45,0,0,.05,0,.1,0a1,1,0,0,1-.05.22,9.42,9.42,0,0,0-.36,3.94,7.16,7.16,0,0,0,.2,1.2.24.24,0,0,1-.09.28c-1.36,1.26-2.72,2.54-4.1,3.79a4.35,4.35,0,0,0-1.46,2.43,4.43,4.43,0,0,0,1.87,4.59,5.55,5.55,0,0,0,5.79.31,6.65,6.65,0,0,0,.93-.73c2.15-2,4.27-4,6.45-5.89a4.43,4.43,0,0,0-1-7.14A5.54,5.54,0,0,0,24.79,24l-.13,0a5.8,5.8,0,0,1,.28-.73,5.13,5.13,0,0,1,1.14-1.41l1.3-1.24a.24.24,0,0,1,.3,0,9,9,0,0,1,6,5.82A7.85,7.85,0,0,1,34,29.32ZM44.48,40.09H40.87v3.67H38.45V40.09H34.84V37.78h3.61V34.12h2.42v3.66h3.61Zm.08-20.54c-.06.37-.11.74-.18,1.11a7.67,7.67,0,0,1-2.25,4.05c-1.56,1.47-3.13,2.95-4.71,4.41-.87.8-1.76,1.56-2.65,2.34a1.46,1.46,0,0,1-.4.26,1.66,1.66,0,0,1,0-.22,9.48,9.48,0,0,0,.41-3.3c0-.61-.16-1.21-.26-1.81a.31.31,0,0,1,.11-.32L39,22a4.17,4.17,0,0,0,1.22-3.81c-.31-2.52-3.72-5.13-7.48-3.36a3.89,3.89,0,0,0-.89.63c-2.22,2-4.44,4.06-6.65,6.09a4.19,4.19,0,0,0-1.41,2.54,4.71,4.71,0,0,0,3.85,5.2,8.11,8.11,0,0,0,.86.14c.28,0,.32.07.21.32a4.39,4.39,0,0,1-1.06,1.61l-1.59,1.49a.32.32,0,0,1-.23.06,9.45,9.45,0,0,1-5.3-4.18,7.79,7.79,0,0,1-1-4.49A7.2,7.2,0,0,1,21,20.16a16,16,0,0,1,1.83-1.95q3-2.84,6.16-5.6a9,9,0,0,1,4.48-2.07l.75-.14h1.47l.62.06a9,9,0,0,1,8.14,7c.06.33.1.65.15,1Z"/></svg>