<svg id="Layer_1" data-name="Layer 1" xmlns="http://www.w3.org/2000/svg" viewBox="0 0 53.47 53.47"><defs><style>.cls-1{fill:#36b054;}</style></defs><title>attach</title><path class="cls-1" d="M26.74,0A26.74,26.74,0,1,0,53.47,26.74,26.74,26.74,0,0,0,26.74,0ZM44.48,40.09H40.87v3.67H38.45V40.09H34.84V37.78h3.61V34.12h2.42v3.66h3.61ZM41.83,26Q36.6,31.24,31.35,36.47l-4.2,4.19c-.14.14-.25.25-.43.25h0c-.17,0-.28-.11-.42-.25L26,40.33c-.4-.41-.8-.82-1.21-1.21a.5.5,0,0,1-.18-.35.56.56,0,0,1,.18-.37L31,32.17,39.19,24a7.21,7.21,0,0,0,1.63-2.24A5.94,5.94,0,0,0,31,15.34L21,25.42,17.6,28.78l-1.31,1.3c-1,1-2,2-2.93,3a4.09,4.09,0,0,0,2.34,6.9,4,4,0,0,0,3.54-1.2l1.12-1.12Q25.66,32.32,31,27a2.34,2.34,0,0,0,.8-1.7,2.24,2.24,0,0,0-3.83-1.62L19,32.6a.46.46,0,0,0-.07.07.43.43,0,0,1-.3.17.39.39,0,0,1-.32-.15L16.6,31a.39.39,0,0,1-.14-.31.41.41,0,0,1,.15-.31l4.88-4.88c1.37-1.38,2.74-2.75,4.13-4.11a5.28,5.28,0,0,1,5.72-1.3A5.26,5.26,0,0,1,35,24.68a5.31,5.31,0,0,1-1.61,4.53L28,34.62l-3.75,3.75L21.53,41.1a7.41,7.41,0,0,1-5.24,2.18A7.51,7.51,0,0,1,10,39.83a7.46,7.46,0,0,1,1.07-9.22l2.08-2.08,15.6-15.6a8.9,8.9,0,0,1,6.06-2.74h0c4.88,0,8.82,3.13,9.58,7.61A8.91,8.91,0,0,1,41.83,26Z"/></svg>