<svg xmlns="http://www.w3.org/2000/svg" viewBox="0 0 95.576 21.983">
  <defs>
    <style>
      .cls-1 {
        fill: #3cb054;
      }

      .cls-2 {
        fill: #fff;
      }
    </style>
  </defs>
  <g id="logo" transform="translate(0 -2.793)">
    <path id="Path_1" data-name="Path 1" class="cls-1" d="M11.316,24.776h-.748A10.5,10.5,0,0,1,0,14.209v-.281H0V2.8H0c3.554-.094,12.251.748,17.02,7.388a10.6,10.6,0,0,1,1.216,10.006h0a7.127,7.127,0,0,1-3.367,3.647C17.02,15.425,12.812,8.5,3.928,6.073,10.287,8.691,15.524,17.763,11.316,24.776Z" transform="translate(0 0)"/>
    <path id="Path_2" data-name="Path 2" class="cls-2" d="M38.823,13.4A4.037,4.037,0,0,1,34.8,17.61a3.019,3.019,0,0,1-2.525-1.216v4.3H30.5V9.381h1.777v.935A3.019,3.019,0,0,1,34.8,9.1,4.119,4.119,0,0,1,38.823,13.4Zm-6.64,0a2.438,2.438,0,1,0,4.863,0,2.46,2.46,0,0,0-2.431-2.619A2.409,2.409,0,0,0,32.183,13.4Z" transform="translate(-1.977 -0.409)"/>
    <path id="Path_3" data-name="Path 3" class="cls-2" d="M48.962,13.408v.655H42.977a2.33,2.33,0,0,0,2.431,2.057,3.592,3.592,0,0,0,2.338-.842l.842,1.216a4.817,4.817,0,0,1-3.273,1.122A3.952,3.952,0,0,1,41.2,13.408,3.93,3.93,0,0,1,45.221,9.2C47.372,9.2,48.962,10.883,48.962,13.408Zm-5.985-.748h4.208A2.052,2.052,0,0,0,45.128,10.7,2.08,2.08,0,0,0,42.977,12.66Z" transform="translate(-2.67 -0.415)"/>
    <path id="Path_4" data-name="Path 4" class="cls-2" d="M59.062,13.408v.655H53.077a2.33,2.33,0,0,0,2.431,2.057,3.592,3.592,0,0,0,2.338-.842l.842,1.216a4.817,4.817,0,0,1-3.273,1.122A3.952,3.952,0,0,1,51.3,13.408,3.93,3.93,0,0,1,55.321,9.2C57.472,9.2,59.062,10.883,59.062,13.408Zm-5.985-.748h4.208A2.052,2.052,0,0,0,55.228,10.7,2.08,2.08,0,0,0,53.077,12.66Z" transform="translate(-3.325 -0.415)"/>
    <path id="Path_5" data-name="Path 5" class="cls-2" d="M67.318,9.387l-.468,1.777a3.3,3.3,0,0,0-1.309-.281,1.921,1.921,0,0,0-1.964,2.151v4.4H61.8V9.387h1.777v.935A2.719,2.719,0,0,1,65.915,9.2,3.194,3.194,0,0,1,67.318,9.387Z" transform="translate(-4.005 -0.415)"/>
    <path id="Path_6" data-name="Path 6" class="cls-2" d="M75.9,10.421l-1.122,1.216a2.547,2.547,0,0,0-1.964-.842,2.393,2.393,0,0,0-2.338,2.619,2.448,2.448,0,0,0,2.338,2.619,2.916,2.916,0,0,0,1.964-.842L75.9,16.406a3.889,3.889,0,0,1-2.993,1.309A4.078,4.078,0,0,1,68.7,13.507,4.078,4.078,0,0,1,72.908,9.3,3.468,3.468,0,0,1,75.9,10.421Z" transform="translate(-4.453 -0.421)"/>
    <path id="Path_7" data-name="Path 7" class="cls-2" d="M86.4,13.408a4.3,4.3,0,0,1-8.6,0A4.212,4.212,0,0,1,82.1,9.2,4.156,4.156,0,0,1,86.4,13.408Zm-6.92,0a2.537,2.537,0,0,0,2.525,2.619,2.482,2.482,0,0,0,2.525-2.619,2.527,2.527,0,1,0-5.05,0Z" transform="translate(-5.042 -0.415)"/>
    <path id="Path_8" data-name="Path 8" class="cls-2" d="M91.431,6.316a1.216,1.216,0,0,1-2.431,0A1.238,1.238,0,0,1,90.216,5.1,1.179,1.179,0,0,1,91.431,6.316ZM89.281,17.164V9.121h1.777v8.043Z" transform="translate(-5.768 -0.15)"/>
    <path id="Path_9" data-name="Path 9" class="cls-2" d="M101.681,12.38v5.05H99.9V12.941c0-1.309-.655-2.151-1.87-2.151a1.988,1.988,0,0,0-2.057,2.151V17.43H94.2V9.387h1.683v1.029A2.948,2.948,0,0,1,98.315,9.2,3.146,3.146,0,0,1,101.681,12.38Z" transform="translate(-6.105 -0.415)"/>
  </g>
</svg>
